<svg width="140" height="140" viewBox="0 0 140 140" fill="none" xmlns="http://www.w3.org/2000/svg">
<path d="M135.387 136.644C135.925 136.769 136.462 136.434 136.588 135.897L138.626 127.13C138.751 126.593 138.417 126.055 137.879 125.93C137.341 125.805 136.803 126.14 136.678 126.677L134.866 134.47L127.074 132.657C126.536 132.532 125.999 132.867 125.873 133.405C125.748 133.943 126.083 134.48 126.621 134.605L135.387 136.644ZM84.3417 81.8088L83.4422 81.3719L84.3417 81.8088ZM114.898 93.2024L114.016 92.7309C113.997 92.7657 113.981 92.8014 113.966 92.8381L114.898 93.2024ZM60.4818 81.8504L60.5235 80.8513L58.5252 80.768L58.4836 81.7671L60.4818 81.8504ZM136.462 135.141C132.091 128.12 125.931 122.673 119.39 118.098C112.865 113.535 105.869 109.782 99.877 106.235C93.819 102.65 88.8371 99.302 86.0277 95.501C84.6412 93.6252 83.8072 91.6672 83.6238 89.534C83.4402 87.3982 83.9017 85.0036 85.2412 82.2456L83.4422 81.3719C81.9811 84.3802 81.4103 87.1359 81.6311 89.7053C81.8522 92.2771 82.8594 94.5793 84.4193 96.6898C87.5027 100.861 92.8344 104.391 98.8583 107.956C104.948 111.561 111.802 115.232 118.244 119.737C124.669 124.231 130.591 129.495 134.765 136.199L136.462 135.141ZM85.2412 82.2456C87.5764 77.4376 91.0606 74.765 94.811 73.6489C98.5857 72.5256 102.704 72.9588 106.291 74.5092C109.883 76.0614 112.865 78.6992 114.417 81.8871C115.953 85.0415 116.122 88.791 114.016 92.7309L115.78 93.6739C118.193 89.1604 118.028 84.7343 116.215 81.0114C114.419 77.3221 111.036 74.381 107.085 72.6733C103.129 70.9639 98.527 70.4564 94.2405 71.732C89.9296 73.0149 86.0119 76.0809 83.4422 81.3719L85.2412 82.2456ZM113.966 92.8381C109.235 104.932 95.4903 111.256 83.0116 109.951C76.8033 109.302 70.9963 106.767 66.8383 102.194C62.6905 97.6316 60.1026 90.9521 60.4818 81.8504L58.4836 81.7671C58.086 91.3097 60.8032 98.5288 65.3584 103.539C69.9035 108.538 76.1973 111.25 82.8036 111.94C95.9541 113.315 110.694 106.691 115.829 93.5668L113.966 92.8381Z" fill="#D50000"/>
<path d="M59.4827 79.2192C60.6971 60.9903 84.3417 64.2002 62.5923 32.5411" stroke="#D50000" stroke-width="2" stroke-dasharray="3.5 3.5"/>
<path d="M4.98563 20.35V19.5H9.93563V20.35H7.93563V27H6.98563V20.35H4.98563ZM11.1395 27V19H12.0395V22.7083C12.2284 22.4472 12.4618 22.2472 12.7395 22.1083C13.0173 21.9694 13.3145 21.9 13.6312 21.9C13.9868 21.9 14.3145 21.9889 14.6145 22.1667C14.9201 22.3389 15.1673 22.5917 15.3562 22.925C15.5451 23.2528 15.6395 23.6528 15.6395 24.125V27H14.7395V24.25C14.7395 23.8556 14.6201 23.5083 14.3812 23.2083C14.1479 22.9028 13.8173 22.75 13.3895 22.75C13.0395 22.75 12.7256 22.8778 12.4479 23.1333C12.1756 23.3833 12.0395 23.7472 12.0395 24.225V27H11.1395ZM17.1395 27V22H18.0395V27H17.1395ZM17.5895 21.1C17.4229 21.1 17.2812 21.0417 17.1645 20.925C17.0479 20.8083 16.9895 20.6667 16.9895 20.5C16.9895 20.3278 17.0479 20.1861 17.1645 20.075C17.2812 19.9583 17.4229 19.9 17.5895 19.9C17.7618 19.9 17.9034 19.9583 18.0145 20.075C18.1312 20.1861 18.1895 20.3278 18.1895 20.5C18.1895 20.6667 18.1312 20.8083 18.0145 20.925C17.9034 21.0417 17.7618 21.1 17.5895 21.1ZM20.9273 27.1C20.6717 27.1 20.3967 27.0528 20.1023 26.9583C19.8134 26.8583 19.5634 26.6944 19.3523 26.4667L19.6023 25.4833C19.7579 25.7444 19.9579 25.9528 20.2023 26.1083C20.4467 26.2583 20.7079 26.3333 20.9856 26.3333C21.2523 26.3333 21.4523 26.2694 21.5856 26.1417C21.719 26.0083 21.7856 25.8472 21.7856 25.6583C21.7856 25.4417 21.7134 25.2833 21.569 25.1833C21.4301 25.0833 21.3051 25.0139 21.194 24.975L20.519 24.7167C20.3967 24.6667 20.2495 24.5944 20.0773 24.5C19.9051 24.4 19.7551 24.2583 19.6273 24.075C19.4995 23.8917 19.4356 23.6528 19.4356 23.3583C19.4356 23.0917 19.4995 22.8472 19.6273 22.625C19.7551 22.4028 19.9356 22.2278 20.169 22.1C20.4023 21.9667 20.6773 21.9 20.994 21.9C21.244 21.9 21.5051 21.9444 21.7773 22.0333C22.0495 22.1222 22.2801 22.2722 22.469 22.4833L22.219 23.4667C22.0856 23.2222 21.9051 23.0278 21.6773 22.8833C21.4495 22.7389 21.2134 22.6667 20.969 22.6667C20.7412 22.6667 20.5606 22.7306 20.4273 22.8583C20.2995 22.9861 20.2356 23.1333 20.2356 23.3C20.2356 23.4333 20.2801 23.5528 20.369 23.6583C20.4579 23.7639 20.5912 23.85 20.769 23.9167L21.444 24.175C21.5662 24.2194 21.7162 24.2917 21.894 24.3917C22.0773 24.4917 22.2384 24.6361 22.3773 24.825C22.5162 25.0139 22.5856 25.2694 22.5856 25.5917C22.5856 26.0417 22.4273 26.4056 22.1106 26.6833C21.7995 26.9611 21.4051 27.1 20.9273 27.1ZM26.3856 27V22H27.2856V27H26.3856ZM26.8356 21.1C26.669 21.1 26.5273 21.0417 26.4106 20.925C26.294 20.8083 26.2356 20.6667 26.2356 20.5C26.2356 20.3278 26.294 20.1861 26.4106 20.075C26.5273 19.9583 26.669 19.9 26.8356 19.9C27.0079 19.9 27.1495 19.9583 27.2606 20.075C27.3773 20.1861 27.4356 20.3278 27.4356 20.5C27.4356 20.6667 27.3773 20.8083 27.2606 20.925C27.1495 21.0417 27.0079 21.1 26.8356 21.1ZM30.1734 27.1C29.9178 27.1 29.6428 27.0528 29.3484 26.9583C29.0595 26.8583 28.8095 26.6944 28.5984 26.4667L28.8484 25.4833C29.0039 25.7444 29.2039 25.9528 29.4484 26.1083C29.6928 26.2583 29.9539 26.3333 30.2317 26.3333C30.4984 26.3333 30.6984 26.2694 30.8317 26.1417C30.9651 26.0083 31.0317 25.8472 31.0317 25.6583C31.0317 25.4417 30.9595 25.2833 30.8151 25.1833C30.6762 25.0833 30.5512 25.0139 30.4401 24.975L29.7651 24.7167C29.6428 24.6667 29.4956 24.5944 29.3234 24.5C29.1512 24.4 29.0012 24.2583 28.8734 24.075C28.7456 23.8917 28.6817 23.6528 28.6817 23.3583C28.6817 23.0917 28.7456 22.8472 28.8734 22.625C29.0012 22.4028 29.1817 22.2278 29.4151 22.1C29.6484 21.9667 29.9234 21.9 30.2401 21.9C30.4901 21.9 30.7512 21.9444 31.0234 22.0333C31.2956 22.1222 31.5262 22.2722 31.7151 22.4833L31.4651 23.4667C31.3317 23.2222 31.1512 23.0278 30.9234 22.8833C30.6956 22.7389 30.4595 22.6667 30.2151 22.6667C29.9873 22.6667 29.8067 22.7306 29.6734 22.8583C29.5456 22.9861 29.4817 23.1333 29.4817 23.3C29.4817 23.4333 29.5262 23.5528 29.6151 23.6583C29.7039 23.7639 29.8373 23.85 30.0151 23.9167L30.6901 24.175C30.8123 24.2194 30.9623 24.2917 31.1401 24.3917C31.3234 24.4917 31.4845 24.6361 31.6234 24.825C31.7623 25.0139 31.8317 25.2694 31.8317 25.5917C31.8317 26.0417 31.6734 26.4056 31.3567 26.6833C31.0456 26.9611 30.6512 27.1 30.1734 27.1ZM37.7734 27.0667C37.3178 27.0667 36.9012 26.9528 36.5234 26.725C36.1456 26.4917 35.8428 26.1806 35.6151 25.7917C35.3928 25.4028 35.2817 24.9722 35.2817 24.5C35.2817 24.0278 35.3928 23.5972 35.6151 23.2083C35.8428 22.8194 36.1456 22.5111 36.5234 22.2833C36.9012 22.05 37.3178 21.9333 37.7734 21.9333C38.1178 21.9333 38.4401 21.9972 38.7401 22.125C39.0456 22.2528 39.3095 22.4306 39.5317 22.6583V22H40.3651V27H39.5317V26.3417C39.3095 26.5639 39.0456 26.7417 38.7401 26.875C38.4401 27.0028 38.1178 27.0667 37.7734 27.0667ZM37.8901 26.25C38.2067 26.25 38.4928 26.1722 38.7484 26.0167C39.0095 25.8556 39.2151 25.6444 39.3651 25.3833C39.5206 25.1167 39.5984 24.8222 39.5984 24.5C39.5984 24.1778 39.5206 23.8861 39.3651 23.625C39.2151 23.3583 39.0095 23.1472 38.7484 22.9917C38.4928 22.8306 38.2067 22.75 37.8901 22.75C37.5734 22.75 37.2845 22.8306 37.0234 22.9917C36.7678 23.1472 36.5623 23.3583 36.4067 23.625C36.2567 23.8861 36.1817 24.1778 36.1817 24.5C36.1817 24.8222 36.2567 25.1167 36.4067 25.3833C36.5623 25.6444 36.7678 25.8556 37.0234 26.0167C37.2845 26.1722 37.5734 26.25 37.8901 26.25ZM44.4559 27V22H45.2893V22.8083C45.4726 22.5139 45.7087 22.2889 45.9976 22.1333C46.2921 21.9778 46.6087 21.9 46.9476 21.9C47.3032 21.9 47.6309 21.9889 47.9309 22.1667C48.2365 22.3389 48.4837 22.5917 48.6726 22.925C48.8615 23.2528 48.9559 23.6528 48.9559 24.125V27H48.0559V24.25C48.0559 23.8556 47.9365 23.5083 47.6976 23.2083C47.4643 22.9028 47.1337 22.75 46.7059 22.75C46.3559 22.75 46.0421 22.8778 45.7643 23.1333C45.4921 23.3833 45.3559 23.7472 45.3559 24.225V27H44.4559ZM52.5976 27.0667C52.1421 27.0667 51.7254 26.9528 51.3476 26.725C50.9698 26.4917 50.6671 26.1806 50.4393 25.7917C50.2171 25.4028 50.1059 24.9722 50.1059 24.5C50.1059 24.0278 50.2171 23.5972 50.4393 23.2083C50.6671 22.8194 50.9698 22.5111 51.3476 22.2833C51.7254 22.05 52.1421 21.9333 52.5976 21.9333C52.9421 21.9333 53.2643 21.9972 53.5643 22.125C53.8698 22.2528 54.1337 22.4306 54.3559 22.6583V22H55.1893V27H54.3559V26.3417C54.1337 26.5639 53.8698 26.7417 53.5643 26.875C53.2643 27.0028 52.9421 27.0667 52.5976 27.0667ZM52.7143 26.25C53.0309 26.25 53.3171 26.1722 53.5726 26.0167C53.8337 25.8556 54.0393 25.6444 54.1893 25.3833C54.3448 25.1167 54.4226 24.8222 54.4226 24.5C54.4226 24.1778 54.3448 23.8861 54.1893 23.625C54.0393 23.3583 53.8337 23.1472 53.5726 22.9917C53.3171 22.8306 53.0309 22.75 52.7143 22.75C52.3976 22.75 52.1087 22.8306 51.8476 22.9917C51.5921 23.1472 51.3865 23.3583 51.2309 23.625C51.0809 23.8861 51.0059 24.1778 51.0059 24.5C51.0059 24.8222 51.0809 25.1167 51.2309 25.3833C51.3865 25.6444 51.5921 25.8556 51.8476 26.0167C52.1087 26.1722 52.3976 26.25 52.7143 26.25ZM58.6091 27.25L56.0841 22H57.1091L58.1257 24.1667C58.2202 24.3611 58.3091 24.5528 58.3924 24.7417C58.4757 24.9306 58.5563 25.1611 58.6341 25.4333C58.7174 25.1611 58.8007 24.9306 58.8841 24.7417C58.973 24.5472 59.0618 24.3556 59.1507 24.1667L60.1757 22H61.1341L58.6091 27.25ZM64.6257 27.0667C64.2813 27.0667 63.9591 27.0028 63.6591 26.875C63.3591 26.7417 63.0952 26.5639 62.8674 26.3417V27H62.0341V19H62.9341V22.5917C63.1563 22.3861 63.4118 22.225 63.7007 22.1083C63.9896 21.9917 64.298 21.9333 64.6257 21.9333C65.0868 21.9333 65.5035 22.05 65.8757 22.2833C66.2535 22.5111 66.5535 22.8194 66.7757 23.2083C67.0035 23.5972 67.1174 24.0278 67.1174 24.5C67.1174 24.9722 67.0035 25.4028 66.7757 25.7917C66.5535 26.1806 66.2535 26.4917 65.8757 26.725C65.5035 26.9528 65.0868 27.0667 64.6257 27.0667ZM64.5091 26.25C64.8257 26.25 65.1118 26.1722 65.3674 26.0167C65.6285 25.8556 65.8341 25.6444 65.9841 25.3833C66.1396 25.1167 66.2174 24.8222 66.2174 24.5C66.2174 24.1778 66.1396 23.8861 65.9841 23.625C65.8341 23.3583 65.6285 23.1472 65.3674 22.9917C65.1118 22.8306 64.8257 22.75 64.5091 22.75C64.1924 22.75 63.9035 22.8306 63.6424 22.9917C63.3868 23.1472 63.1813 23.3583 63.0257 23.625C62.8757 23.8861 62.8007 24.1778 62.8007 24.5C62.8007 24.8222 62.8757 25.1167 63.0257 25.3833C63.1813 25.6444 63.3868 25.8556 63.6424 26.0167C63.9035 26.1722 64.1924 26.25 64.5091 26.25ZM70.5039 27.0667C70.0483 27.0667 69.6316 26.9528 69.2539 26.725C68.8761 26.4917 68.5733 26.1806 68.3455 25.7917C68.1233 25.4028 68.0122 24.9722 68.0122 24.5C68.0122 24.0278 68.1233 23.5972 68.3455 23.2083C68.5733 22.8194 68.8761 22.5111 69.2539 22.2833C69.6316 22.05 70.0483 21.9333 70.5039 21.9333C70.8483 21.9333 71.1705 21.9972 71.4705 22.125C71.7761 22.2528 72.04 22.4306 72.2622 22.6583V22H73.0955V27H72.2622V26.3417C72.04 26.5639 71.7761 26.7417 71.4705 26.875C71.1705 27.0028 70.8483 27.0667 70.5039 27.0667ZM70.6205 26.25C70.9372 26.25 71.2233 26.1722 71.4789 26.0167C71.74 25.8556 71.9455 25.6444 72.0955 25.3833C72.2511 25.1167 72.3289 24.8222 72.3289 24.5C72.3289 24.1778 72.2511 23.8861 72.0955 23.625C71.9455 23.3583 71.74 23.1472 71.4789 22.9917C71.2233 22.8306 70.9372 22.75 70.6205 22.75C70.3039 22.75 70.015 22.8306 69.7539 22.9917C69.4983 23.1472 69.2928 23.3583 69.1372 23.625C68.9872 23.8861 68.9122 24.1778 68.9122 24.5C68.9122 24.8222 68.9872 25.1167 69.1372 25.3833C69.2928 25.6444 69.4983 25.8556 69.7539 26.0167C70.015 26.1722 70.3039 26.25 70.6205 26.25ZM74.6903 27V22H75.5237V22.9167C75.7014 22.6222 75.9375 22.3889 76.232 22.2167C76.5264 22.0389 76.8764 21.95 77.282 21.95L77.507 22.85C77.4014 22.8167 77.2792 22.8 77.1403 22.8C76.6737 22.8 76.2987 22.95 76.0153 23.25C75.732 23.5444 75.5903 23.9667 75.5903 24.5167V27H74.6903ZM83.5281 27.0667C83.1836 27.0667 82.8614 27.0028 82.5614 26.875C82.2614 26.7417 81.9975 26.5639 81.7697 26.3417V27H80.9364V19H81.8364V22.5917C82.0586 22.3861 82.3142 22.225 82.6031 22.1083C82.892 21.9917 83.2003 21.9333 83.5281 21.9333C83.9892 21.9333 84.4059 22.05 84.7781 22.2833C85.1559 22.5111 85.4559 22.8194 85.6781 23.2083C85.9059 23.5972 86.0197 24.0278 86.0197 24.5C86.0197 24.9722 85.9059 25.4028 85.6781 25.7917C85.4559 26.1806 85.1559 26.4917 84.7781 26.725C84.4059 26.9528 83.9892 27.0667 83.5281 27.0667ZM83.4114 26.25C83.7281 26.25 84.0142 26.1722 84.2697 26.0167C84.5309 25.8556 84.7364 25.6444 84.8864 25.3833C85.042 25.1167 85.1197 24.8222 85.1197 24.5C85.1197 24.1778 85.042 23.8861 84.8864 23.625C84.7364 23.3583 84.5309 23.1472 84.2697 22.9917C84.0142 22.8306 83.7281 22.75 83.4114 22.75C83.0947 22.75 82.8059 22.8306 82.5447 22.9917C82.2892 23.1472 82.0836 23.3583 81.9281 23.625C81.7781 23.8861 81.7031 24.1778 81.7031 24.5C81.7031 24.8222 81.7781 25.1167 81.9281 25.3833C82.0836 25.6444 82.2892 25.8556 82.5447 26.0167C82.8059 26.1722 83.0947 26.25 83.4114 26.25ZM87.6018 27V22.75H86.4684V22H87.6268V20.3333H88.4768V22H89.7184V22.75H88.5018V27H87.6018ZM92.5934 27.25L90.0684 22H91.0934L92.1018 24.1667C92.1962 24.3722 92.2851 24.5722 92.3684 24.7667C92.4573 24.9611 92.5434 25.2056 92.6268 25.5C92.7157 25.2111 92.8046 24.9667 92.8934 24.7667C92.9879 24.5667 93.0768 24.3667 93.1601 24.1667L94.1684 21.7667L95.1684 24.1667C95.2518 24.3722 95.3379 24.5722 95.4268 24.7667C95.5157 24.9611 95.6018 25.2056 95.6851 25.5C95.7684 25.2056 95.8546 24.9611 95.9434 24.7667C96.0323 24.5667 96.124 24.3667 96.2184 24.1667L97.2434 22H98.2018L95.6768 27.25L94.6601 25.0167C94.5712 24.8167 94.4823 24.6194 94.3934 24.425C94.3101 24.225 94.224 23.9861 94.1351 23.7083C94.0518 23.9861 93.9657 24.225 93.8768 24.425C93.7879 24.6194 93.6962 24.8167 93.6018 25.0167L92.5934 27.25ZM98.9216 27.1C98.7382 27.1 98.5827 27.0389 98.4549 26.9167C98.3327 26.7889 98.2716 26.6333 98.2716 26.45C98.2716 26.2667 98.3327 26.1139 98.4549 25.9917C98.5827 25.8639 98.7382 25.8 98.9216 25.8C99.1105 25.8 99.266 25.8639 99.3882 25.9917C99.5105 26.1139 99.5716 26.2667 99.5716 26.45C99.5716 26.6333 99.5105 26.7889 99.3882 26.9167C99.266 27.0389 99.1105 27.1 98.9216 27.1ZM101.172 27.1C100.988 27.1 100.833 27.0389 100.705 26.9167C100.583 26.7889 100.522 26.6333 100.522 26.45C100.522 26.2667 100.583 26.1139 100.705 25.9917C100.833 25.8639 100.988 25.8 101.172 25.8C101.36 25.8 101.516 25.8639 101.638 25.9917C101.76 26.1139 101.822 26.2667 101.822 26.45C101.822 26.6333 101.76 26.7889 101.638 26.9167C101.516 27.0389 101.36 27.1 101.172 27.1ZM103.897 24.5L103.847 19.5H104.747L104.697 24.5H103.897ZM104.297 27.1C104.124 27.1 103.977 27.0389 103.855 26.9167C103.733 26.7944 103.672 26.6472 103.672 26.475C103.672 26.2972 103.733 26.15 103.855 26.0333C103.977 25.9111 104.124 25.85 104.297 25.85C104.474 25.85 104.622 25.9111 104.738 26.0333C104.86 26.15 104.922 26.2972 104.922 26.475C104.922 26.6472 104.86 26.7944 104.738 26.9167C104.622 27.0389 104.474 27.1 104.297 27.1ZM107.893 24.5L107.843 19.5H108.743L108.693 24.5H107.893ZM108.293 27.1C108.12 27.1 107.973 27.0389 107.851 26.9167C107.729 26.7944 107.668 26.6472 107.668 26.475C107.668 26.2972 107.729 26.15 107.851 26.0333C107.973 25.9111 108.12 25.85 108.293 25.85C108.47 25.85 108.618 25.9111 108.734 26.0333C108.857 26.15 108.918 26.2972 108.918 26.475C108.918 26.6472 108.857 26.7944 108.734 26.9167C108.618 27.0389 108.47 27.1 108.293 27.1Z" fill="#E5E5E5"/>
</svg>
