<svg width="500" height="500" viewBox="0 0 500 500" fill="none" xmlns="http://www.w3.org/2000/svg">
<g clip-path="url(#clip0_2006_4)">
<path d="M217 304V267.5C225 271.1 240.833 272.833 248.5 273.5C262.1 272.3 276.333 269.167 281 267.5V304C251.8 338.8 226.167 318.5 217 304Z" fill="#0B0B0B" stroke="#0B0B0B" stroke-width="5"/>
<path d="M306.5 314C305.3 310 290 304 282.5 301.5C272.167 316.5 244.2 338.4 215 306C191.167 314.667 140.6 334.8 121 350C117 355.167 105 377.2 89 424C88.1667 422.167 83.8 425.4 73 453C84.6667 461.5 114.8 479.6 142 484H146.5L149 497.5H350V484.5H354.5C401.3 470.5 421 457.333 425 452.5C420.2 431.7 413.333 427.5 410.5 428C386.9 360 380 348 379.5 350.5L306.5 314Z" fill="#282523"/>
<path d="M350 484.5H354.5C401.3 470.5 421 457.333 425 452.5C420.2 431.7 413.333 427.5 410.5 428C386.9 360 380 348 379.5 350.5L306.5 314C305.3 310 290 304 282.5 301.5C272.167 316.5 244.2 338.4 215 306C191.167 314.667 140.6 334.8 121 350C117 355.167 105 377.2 89 424C88.1667 422.167 83.8 425.4 73 453C84.6667 461.5 114.8 479.6 142 484H146.5M350 484.5V497.5H149M350 484.5L362.5 383.5M149 497.5L147 493.5M149 497.5L146.5 484M146.5 484L136.5 382.5V380" stroke="#0B0B0B" stroke-width="5"/>
<path d="M189 317.5C197.5 382 296 383.5 310 317.5C300.4 314.7 306 309.5 281.5 302C257 328 229 315.5 216 306C207 309.333 189 316.3 189 317.5Z" fill="#E7C28F" stroke="#0B0B0B" stroke-width="5"/>
<path d="M263 342C266.5 340.5 279 337.5 298.5 340M202.5 345.5C212.333 342.667 220.5 340 236.5 343" stroke="#5E492C" stroke-opacity="0.17" stroke-width="5" stroke-linecap="round" stroke-linejoin="round" style="mix-blend-mode:plus-darker"/>
<path d="M85 462.5L73.5 499.5H149C149.5 499.5 147 489 146.5 484.5C135.833 483.167 108.6 476.9 85 462.5Z" fill="#E7C28F"/>
<path d="M73.5 499.5L85 462.5C108.6 476.9 135.833 483.167 146.5 484.5C147 489 149.5 499.5 149 499.5M73.5 499.5C98.5 499.5 148.6 499.5 149 499.5M73.5 499.5H149" stroke="#0B0B0B" stroke-width="5"/>
<path d="M80 479L85 462.5C108.6 476.9 135.833 483.167 146.5 484.5C147 489 191.5 494 148 493C104.5 492 80 479 80 479Z" fill="#AF8F62" style="mix-blend-mode:darken"/>
<path d="M415.566 463L427.066 500H351.566C351.066 500 353.566 489.5 354.066 485C364.732 483.667 391.966 477.4 415.566 463Z" fill="#E7C28F"/>
<path d="M427.066 500L415.566 463C391.966 477.4 364.732 483.667 354.066 485C353.566 489.5 351.066 500 351.566 500M427.066 500C402.066 500 351.966 500 351.566 500M427.066 500H351.566" stroke="#0B0B0B" stroke-width="5"/>
<path d="M420.56 478.5L415.56 462C391.96 476.4 364.726 482.667 354.06 484C353.56 488.5 309.06 493.5 352.56 492.5C396.06 491.5 420.56 478.5 420.56 478.5Z" fill="#AF8F62" style="mix-blend-mode:darken"/>
<path d="M181.5 498C163.5 462.5 157.167 396.833 157 394.5C161.4 429.3 188.833 478 202 498H181.5Z" fill="#1D1C1B"/>
<path d="M346.5 496C349.5 456.5 353.333 437.333 353.5 435C349.1 469.8 336.667 476 323.5 496H346.5Z" fill="#1D1C1B"/>
<path d="M151.5 495C147.5 471.5 144.611 433.398 144.5 432C147.433 452.846 158.722 484.019 167.5 496L151.5 495Z" fill="#1D1C1B"/>
<path d="M134 380C135 403.5 143.389 479.602 143.5 481C140.567 460.154 135.278 419.981 126.5 408L134 380Z" fill="#1D1C1B"/>
<path d="M365 384C361.5 412 353.111 480.602 353 482C357.5 462 363.722 425.981 372.5 414L365 384Z" fill="#1D1C1B"/>
<path d="M173.5 195.5C148.5 184 132.5 249 186 246L173.5 195.5Z" fill="#E7C28F" stroke="#0B0B0B" stroke-width="5"/>
<path d="M338 195.366C363 183.866 379 248.866 325.5 245.866L338 195.366Z" fill="#E7C28F" stroke="#0B0B0B" stroke-width="5"/>
<path d="M164 195.5C161.833 224.667 178 290 247.5 293.5C319.5 287.9 336.167 225.167 335 195.5L319.5 144.5L164 195.5Z" fill="#E7C28F" stroke="#0B0B0B" stroke-width="5"/>
<path d="M138 200C142 205.6 150.667 202.333 154.5 200C158.1 196.4 160.167 197.167 164 197.5C156.99 201.224 164.169 196.577 164 197.5C163.828 199.23 164.171 197.095 164 198.5C162 248.5 189 272.667 199.5 278.5L215 265C227.4 252.6 228.833 219.167 228 204C238.8 214.4 231.167 245.667 226 260C248 251 266.5 240 266.5 240C304.5 221 322.833 175.5 325.5 152C331.5 164.4 325.167 217 321.5 244.5C335.9 229.3 344.167 200.667 349 182L339 236.5L363 200C367 185.2 362.667 168.5 360 162C364 162.4 369.667 178.833 372 187C375.921 164.9 364.087 142.291 358.055 130.769C355.626 126.129 354.139 123.287 355 123C357.4 122.2 371 133 377.5 138.5C369.1 117.3 347.833 100.833 335 94C333.806 94.3287 338.187 93.2412 335 94C337.741 93.246 339.9 89.8212 369.5 94C351.5 78 327.667 80.6667 318 84C326 62.8 273 44 261.5 44C270.439 49.3636 271.29 50.0304 273.714 51.9317C276.037 53.7525 279.803 56.7055 293.5 66C274.3 63.6 223.833 52.3334 201 47C205.894 53.7979 206.205 53.9414 209.169 55.3115C211.655 56.4608 216.008 58.4733 226.5 66C204.9 78.8 169.5 77.3334 154.5 75C164.9 81.4 178.833 83.6667 184.5 84C168.9 102 144.333 111.5 134 114C142.8 119.6 154 120 158.5 119.5C132.1 141.9 129.5 162.5 131.5 170C138.3 160.4 154 149.667 161 145.5C159.02 147.268 157.287 148.658 155.775 149.87C148.921 155.365 146.627 157.205 146.627 174C144.931 187.238 143.505 189.505 141.625 192.495C140.594 194.136 139.425 195.994 138 200Z" fill="#221E1E"/>
<path d="M164 197.5C160.167 197.167 158.1 196.4 154.5 200C150.667 202.333 142 205.6 138 200C139.425 195.994 140.594 194.136 141.625 192.495C143.505 189.505 144.931 187.238 146.627 174C146.627 157.205 148.921 155.365 155.775 149.87C157.287 148.658 159.02 147.268 161 145.5C154 149.667 138.3 160.4 131.5 170C129.5 162.5 132.1 141.9 158.5 119.5C154 120 142.8 119.6 134 114C144.333 111.5 168.9 102 184.5 84C178.833 83.6667 164.9 81.4 154.5 75C169.5 77.3334 204.9 78.8 226.5 66C216.008 58.4733 211.655 56.4608 209.169 55.3115C206.205 53.9414 205.894 53.7979 201 47C223.833 52.3334 274.3 63.6 293.5 66C279.803 56.7055 276.037 53.7525 273.714 51.9317C271.29 50.0304 270.439 49.3636 261.5 44C273 44 326 62.8 318 84C327.667 80.6667 351.5 78 369.5 94C339.9 89.8212 337.741 93.246 335 94M164 197.5C156.99 201.224 164.169 196.577 164 197.5ZM164 197.5C163.828 199.23 164.171 197.095 164 198.5C162 248.5 189 272.667 199.5 278.5L215 265C227.4 252.6 228.833 219.167 228 204C238.8 214.4 231.167 245.667 226 260C248 251 266.5 240 266.5 240C304.5 221 322.833 175.5 325.5 152C331.5 164.4 325.167 217 321.5 244.5C335.9 229.3 344.167 200.667 349 182L339 236.5L363 200C367 185.2 362.667 168.5 360 162C364 162.4 369.667 178.833 372 187C375.921 164.9 364.087 142.291 358.055 130.769C355.626 126.129 354.139 123.287 355 123C357.4 122.2 371 133 377.5 138.5C369.1 117.3 347.833 100.833 335 94M335 94C333.806 94.3287 338.187 93.2412 335 94Z" stroke="#0B0B0B" stroke-width="5" stroke-linejoin="round"/>
<path d="M224 268C247 260 258 258 273.5 265.5" stroke="#0B0B0B" stroke-width="5" stroke-linecap="round"/>
</g>
<defs>
<clipPath id="clip0_2006_4">
<rect width="500" height="500" fill="white"/>
</clipPath>
</defs>
</svg>
